<mxfile host="app.diagrams.net" modified="2023-05-18T09:47:50.118Z" agent="Mozilla/5.0 (Windows NT 10.0; Win64; x64) AppleWebKit/537.36 (KHTML, like Gecko) Chrome/113.0.0.0 Safari/537.36" etag="dB_2X2E4bfI-JrfpL8zC" version="21.3.2" type="device">
  <diagram name="1 oldal" id="zcR4Ms08MFYFUbuye_rW">
    <mxGraphModel dx="880" dy="1596" grid="1" gridSize="10" guides="1" tooltips="1" connect="1" arrows="1" fold="1" page="1" pageScale="1" pageWidth="827" pageHeight="1169" math="0" shadow="0">
      <root>
        <mxCell id="0" />
        <mxCell id="1" parent="0" />
        <mxCell id="SiJW79LcUMFI_TIumHi4-84" style="edgeStyle=orthogonalEdgeStyle;rounded=0;orthogonalLoop=1;jettySize=auto;html=1;exitX=0.5;exitY=0;exitDx=0;exitDy=0;endArrow=none;endFill=0;entryX=0.5;entryY=0;entryDx=0;entryDy=0;" edge="1" parent="1" source="SiJW79LcUMFI_TIumHi4-21" target="SiJW79LcUMFI_TIumHi4-29">
          <mxGeometry relative="1" as="geometry">
            <mxPoint x="350" y="-260" as="targetPoint" />
          </mxGeometry>
        </mxCell>
        <mxCell id="SiJW79LcUMFI_TIumHi4-21" value="Character" style="swimlane;fontStyle=0;childLayout=stackLayout;horizontal=1;startSize=30;horizontalStack=0;resizeParent=1;resizeParentMax=0;resizeLast=0;collapsible=1;marginBottom=0;whiteSpace=wrap;html=1;" vertex="1" parent="1">
          <mxGeometry x="530" y="-240" width="140" height="210" as="geometry" />
        </mxCell>
        <mxCell id="SiJW79LcUMFI_TIumHi4-43" value="" style="swimlane;fontStyle=0;childLayout=stackLayout;horizontal=1;startSize=0;horizontalStack=0;resizeParent=1;resizeParentMax=0;resizeLast=0;collapsible=1;marginBottom=0;whiteSpace=wrap;html=1;" vertex="1" parent="SiJW79LcUMFI_TIumHi4-21">
          <mxGeometry y="30" width="140" height="90" as="geometry" />
        </mxCell>
        <mxCell id="SiJW79LcUMFI_TIumHi4-44" value="- hp: int" style="text;strokeColor=none;fillColor=none;align=left;verticalAlign=middle;spacingLeft=4;spacingRight=4;overflow=hidden;points=[[0,0.5],[1,0.5]];portConstraint=eastwest;rotatable=0;whiteSpace=wrap;html=1;" vertex="1" parent="SiJW79LcUMFI_TIumHi4-43">
          <mxGeometry width="140" height="30" as="geometry" />
        </mxCell>
        <mxCell id="SiJW79LcUMFI_TIumHi4-87" value="- name: string" style="text;strokeColor=none;fillColor=none;align=left;verticalAlign=middle;spacingLeft=4;spacingRight=4;overflow=hidden;points=[[0,0.5],[1,0.5]];portConstraint=eastwest;rotatable=0;whiteSpace=wrap;html=1;" vertex="1" parent="SiJW79LcUMFI_TIumHi4-43">
          <mxGeometry y="30" width="140" height="30" as="geometry" />
        </mxCell>
        <mxCell id="SiJW79LcUMFI_TIumHi4-54" value="- sebzes: int" style="text;strokeColor=none;fillColor=none;align=left;verticalAlign=middle;spacingLeft=4;spacingRight=4;overflow=hidden;points=[[0,0.5],[1,0.5]];portConstraint=eastwest;rotatable=0;whiteSpace=wrap;html=1;" vertex="1" parent="SiJW79LcUMFI_TIumHi4-43">
          <mxGeometry y="60" width="140" height="30" as="geometry" />
        </mxCell>
        <mxCell id="SiJW79LcUMFI_TIumHi4-26" value="+ getHP" style="text;strokeColor=none;fillColor=none;align=left;verticalAlign=middle;spacingLeft=4;spacingRight=4;overflow=hidden;points=[[0,0.5],[1,0.5]];portConstraint=eastwest;rotatable=0;whiteSpace=wrap;html=1;" vertex="1" parent="SiJW79LcUMFI_TIumHi4-21">
          <mxGeometry y="120" width="140" height="30" as="geometry" />
        </mxCell>
        <mxCell id="SiJW79LcUMFI_TIumHi4-88" value="+ getNAME" style="text;strokeColor=none;fillColor=none;align=left;verticalAlign=middle;spacingLeft=4;spacingRight=4;overflow=hidden;points=[[0,0.5],[1,0.5]];portConstraint=eastwest;rotatable=0;whiteSpace=wrap;html=1;" vertex="1" parent="SiJW79LcUMFI_TIumHi4-21">
          <mxGeometry y="150" width="140" height="30" as="geometry" />
        </mxCell>
        <mxCell id="SiJW79LcUMFI_TIumHi4-55" value="+ getSebzes" style="text;strokeColor=none;fillColor=none;align=left;verticalAlign=middle;spacingLeft=4;spacingRight=4;overflow=hidden;points=[[0,0.5],[1,0.5]];portConstraint=eastwest;rotatable=0;whiteSpace=wrap;html=1;" vertex="1" parent="SiJW79LcUMFI_TIumHi4-21">
          <mxGeometry y="180" width="140" height="30" as="geometry" />
        </mxCell>
        <mxCell id="SiJW79LcUMFI_TIumHi4-83" style="edgeStyle=orthogonalEdgeStyle;rounded=0;orthogonalLoop=1;jettySize=auto;html=1;exitX=0.5;exitY=0;exitDx=0;exitDy=0;entryX=0.5;entryY=1;entryDx=0;entryDy=0;endArrow=none;endFill=0;" edge="1" parent="1" source="SiJW79LcUMFI_TIumHi4-29" target="SiJW79LcUMFI_TIumHi4-68">
          <mxGeometry relative="1" as="geometry" />
        </mxCell>
        <mxCell id="SiJW79LcUMFI_TIumHi4-29" value="Jatekter" style="swimlane;fontStyle=0;childLayout=stackLayout;horizontal=1;startSize=30;horizontalStack=0;resizeParent=1;resizeParentMax=0;resizeLast=0;collapsible=1;marginBottom=0;whiteSpace=wrap;html=1;" vertex="1" parent="1">
          <mxGeometry x="240" y="-240" width="140" height="210" as="geometry" />
        </mxCell>
        <mxCell id="SiJW79LcUMFI_TIumHi4-30" value="- korok: int" style="text;strokeColor=none;fillColor=none;align=left;verticalAlign=middle;spacingLeft=4;spacingRight=4;overflow=hidden;points=[[0,0.5],[1,0.5]];portConstraint=eastwest;rotatable=0;whiteSpace=wrap;html=1;" vertex="1" parent="SiJW79LcUMFI_TIumHi4-29">
          <mxGeometry y="30" width="140" height="30" as="geometry" />
        </mxCell>
        <mxCell id="SiJW79LcUMFI_TIumHi4-32" value="- kerdesek[]" style="text;strokeColor=none;fillColor=none;align=left;verticalAlign=middle;spacingLeft=4;spacingRight=4;overflow=hidden;points=[[0,0.5],[1,0.5]];portConstraint=eastwest;rotatable=0;whiteSpace=wrap;html=1;" vertex="1" parent="SiJW79LcUMFI_TIumHi4-29">
          <mxGeometry y="60" width="140" height="30" as="geometry" />
        </mxCell>
        <mxCell id="SiJW79LcUMFI_TIumHi4-42" value="- megoldasok[]" style="text;strokeColor=none;fillColor=none;align=left;verticalAlign=middle;spacingLeft=4;spacingRight=4;overflow=hidden;points=[[0,0.5],[1,0.5]];portConstraint=eastwest;rotatable=0;whiteSpace=wrap;html=1;" vertex="1" parent="SiJW79LcUMFI_TIumHi4-29">
          <mxGeometry y="90" width="140" height="30" as="geometry" />
        </mxCell>
        <mxCell id="SiJW79LcUMFI_TIumHi4-34" value="" style="swimlane;fontStyle=0;childLayout=stackLayout;horizontal=1;startSize=0;horizontalStack=0;resizeParent=1;resizeParentMax=0;resizeLast=0;collapsible=1;marginBottom=0;whiteSpace=wrap;html=1;" vertex="1" parent="SiJW79LcUMFI_TIumHi4-29">
          <mxGeometry y="120" width="140" height="90" as="geometry" />
        </mxCell>
        <mxCell id="SiJW79LcUMFI_TIumHi4-39" value="+ vallaszellenoriz: void" style="text;strokeColor=none;fillColor=none;align=left;verticalAlign=middle;spacingLeft=4;spacingRight=4;overflow=hidden;points=[[0,0.5],[1,0.5]];portConstraint=eastwest;rotatable=0;whiteSpace=wrap;html=1;" vertex="1" parent="SiJW79LcUMFI_TIumHi4-34">
          <mxGeometry width="140" height="30" as="geometry" />
        </mxCell>
        <mxCell id="SiJW79LcUMFI_TIumHi4-38" value="+ wl ellenoriz: void" style="text;strokeColor=none;fillColor=none;align=left;verticalAlign=middle;spacingLeft=4;spacingRight=4;overflow=hidden;points=[[0,0.5],[1,0.5]];portConstraint=eastwest;rotatable=0;whiteSpace=wrap;html=1;" vertex="1" parent="SiJW79LcUMFI_TIumHi4-34">
          <mxGeometry y="30" width="140" height="30" as="geometry" />
        </mxCell>
        <mxCell id="SiJW79LcUMFI_TIumHi4-62" value="+ menuvissza" style="text;strokeColor=none;fillColor=none;align=left;verticalAlign=middle;spacingLeft=4;spacingRight=4;overflow=hidden;points=[[0,0.5],[1,0.5]];portConstraint=eastwest;rotatable=0;whiteSpace=wrap;html=1;" vertex="1" parent="SiJW79LcUMFI_TIumHi4-34">
          <mxGeometry y="60" width="140" height="30" as="geometry" />
        </mxCell>
        <mxCell id="SiJW79LcUMFI_TIumHi4-68" value="main&lt;br&gt;&lt;br&gt;Jatekter" style="rounded=0;whiteSpace=wrap;html=1;" vertex="1" parent="1">
          <mxGeometry x="294" y="-450" width="120" height="60" as="geometry" />
        </mxCell>
        <mxCell id="SiJW79LcUMFI_TIumHi4-82" style="edgeStyle=orthogonalEdgeStyle;rounded=0;orthogonalLoop=1;jettySize=auto;html=1;exitX=0.5;exitY=0;exitDx=0;exitDy=0;entryX=0.5;entryY=0;entryDx=0;entryDy=0;endArrow=none;endFill=0;" edge="1" parent="1" source="SiJW79LcUMFI_TIumHi4-69" target="SiJW79LcUMFI_TIumHi4-29">
          <mxGeometry relative="1" as="geometry" />
        </mxCell>
        <mxCell id="SiJW79LcUMFI_TIumHi4-69" value="Kerdes" style="swimlane;fontStyle=0;childLayout=stackLayout;horizontal=1;startSize=30;horizontalStack=0;resizeParent=1;resizeParentMax=0;resizeLast=0;collapsible=1;marginBottom=0;whiteSpace=wrap;html=1;" vertex="1" parent="1">
          <mxGeometry x="50" y="-270" width="140" height="150" as="geometry" />
        </mxCell>
        <mxCell id="SiJW79LcUMFI_TIumHi4-31" value="- elem: html" style="text;strokeColor=none;fillColor=none;align=left;verticalAlign=middle;spacingLeft=4;spacingRight=4;overflow=hidden;points=[[0,0.5],[1,0.5]];portConstraint=eastwest;rotatable=0;whiteSpace=wrap;html=1;" vertex="1" parent="SiJW79LcUMFI_TIumHi4-69">
          <mxGeometry y="30" width="140" height="30" as="geometry" />
        </mxCell>
        <mxCell id="SiJW79LcUMFI_TIumHi4-41" value="- input: html" style="text;strokeColor=none;fillColor=none;align=left;verticalAlign=middle;spacingLeft=4;spacingRight=4;overflow=hidden;points=[[0,0.5],[1,0.5]];portConstraint=eastwest;rotatable=0;whiteSpace=wrap;html=1;" vertex="1" parent="SiJW79LcUMFI_TIumHi4-69">
          <mxGeometry y="60" width="140" height="30" as="geometry" />
        </mxCell>
        <mxCell id="SiJW79LcUMFI_TIumHi4-45" value="- tipp: string" style="text;strokeColor=none;fillColor=none;align=left;verticalAlign=middle;spacingLeft=4;spacingRight=4;overflow=hidden;points=[[0,0.5],[1,0.5]];portConstraint=eastwest;rotatable=0;whiteSpace=wrap;html=1;" vertex="1" parent="SiJW79LcUMFI_TIumHi4-69">
          <mxGeometry y="90" width="140" height="30" as="geometry" />
        </mxCell>
        <mxCell id="SiJW79LcUMFI_TIumHi4-73" value="" style="swimlane;fontStyle=0;childLayout=stackLayout;horizontal=1;startSize=0;horizontalStack=0;resizeParent=1;resizeParentMax=0;resizeLast=0;collapsible=1;marginBottom=0;whiteSpace=wrap;html=1;" vertex="1" parent="SiJW79LcUMFI_TIumHi4-69">
          <mxGeometry y="120" width="140" height="30" as="geometry" />
        </mxCell>
        <mxCell id="SiJW79LcUMFI_TIumHi4-46" value="+ getTIPP" style="text;strokeColor=none;fillColor=none;align=left;verticalAlign=middle;spacingLeft=4;spacingRight=4;overflow=hidden;points=[[0,0.5],[1,0.5]];portConstraint=eastwest;rotatable=0;whiteSpace=wrap;html=1;" vertex="1" parent="SiJW79LcUMFI_TIumHi4-73">
          <mxGeometry width="140" height="30" as="geometry" />
        </mxCell>
      </root>
    </mxGraphModel>
  </diagram>
</mxfile>
